<svg xmlns="http://www.w3.org/2000/svg" viewBox="0 0 1000 320" width="1000" height="320">
<defs><marker id="h" markerWidth="9" markerHeight="9" refX="8" refY="4" orient="auto"><path d="M0 0 L9 4 L0 8 z" fill="#84cc16"/></marker></defs>
<text x="0" y="30" font-family="ui-monospace,SFMono-Regular,Menlo,Consolas,monospace" font-size="26" font-weight="600" fill="#18181b">Voices</text>
<text x="0" y="54" font-family="-apple-system,BlinkMacSystemFont,Segoe UI,Helvetica,Arial,sans-serif" font-size="14" fill="#71717a">The output-style catalog, as a linter.</text>
<rect x="0" y="86" width="410" height="200" rx="10" fill="#ffffff" stroke="#d4d4d8" stroke-width="1"/>
<text x="20" y="112" font-family="ui-monospace,SFMono-Regular,Menlo,Consolas,monospace" font-size="11" fill="#71717a">draft</text>
<text x="390" y="112" text-anchor="end" font-family="ui-monospace,SFMono-Regular,Menlo,Consolas,monospace" font-size="11" fill="#dc2626">17 alerts &#183; exit 1</text>
<text x="20" y="145" font-family="ui-monospace,SFMono-Regular,Menlo,Consolas,monospace" font-size="13" textLength="273.7" lengthAdjust="spacingAndGlyphs" fill="#18181b">Here's the thing: it's worth noting</text>
<path d="M20.0 151 q 2.0 -3 4 0 q 2.0 3 4 0 q 2.0 -3 4 0 q 2.0 3 4 0 q 2.0 -3 4 0 q 2.0 3 4 0 q 2.0 -3 4 0 q 2.0 3 4 0 q 2.0 -3 4 0 q 2.0 3 4 0 q 2.0 -3 4 0 q 2.0 3 4 0 q 2.0 -3 4 0 q 2.0 3 4 0 q 2.0 -3 4 0 q 2.0 3 4 0 q 2.0 -3 4 0 q 2.0 3 4 0 q 2.0 -3 4 0 q 2.0 3 4 0 q 2.0 -3 4 0 q 2.0 3 4 0 q 2.0 -3 4 0 q 2.0 3 4 0 q 2.0 -3 4 0 q 2.0 3 4 0 q 2.0 -3 4 0 q 2.0 3 4 0 q 2.0 -3 4 0 q 2.0 3 4 0 q 2.0 -3 4 0 q 0.5600000000000023 3 1.1200000000000045 0" fill="none" stroke="#dc2626" stroke-width="1.4" opacity="0.9"/>
<path d="M160.76 151 q 2.0 -3 4 0 q 2.0 3 4 0 q 2.0 -3 4 0 q 2.0 3 4 0 q 2.0 -3 4 0 q 2.0 3 4 0 q 2.0 -3 4 0 q 2.0 3 4 0 q 2.0 -3 4 0 q 2.0 3 4 0 q 2.0 -3 4 0 q 2.0 3 4 0 q 2.0 -3 4 0 q 2.0 3 4 0 q 2.0 -3 4 0 q 2.0 3 4 0 q 2.0 -3 4 0 q 2.0 3 4 0 q 2.0 -3 4 0 q 2.0 3 4 0 q 2.0 -3 4 0 q 2.0 3 4 0 q 2.0 -3 4 0 q 2.0 3 4 0 q 2.0 -3 4 0 q 2.0 3 4 0 q 2.0 -3 4 0 q 2.0 3 4 0 q 2.0 -3 4 0 q 2.0 3 4 0 q 2.0 -3 4 0 q 2.0 3 4 0 q 2.0 -3 4 0 q 0.46999999999999886 3 0.9399999999999977 0" fill="none" stroke="#dc2626" stroke-width="1.4" opacity="0.9"/>
<text x="20" y="175" font-family="ui-monospace,SFMono-Regular,Menlo,Consolas,monospace" font-size="13" textLength="258.1" lengthAdjust="spacingAndGlyphs" fill="#18181b">that the reason your component is</text>
<path d="M59.1 181 q 2.0 -3 4 0 q 2.0 3 4 0 q 2.0 -3 4 0 q 2.0 3 4 0 q 2.0 -3 4 0 q 2.0 3 4 0 q 2.0 -3 4 0 q 2.0 3 4 0 q 2.0 -3 4 0 q 2.0 3 4 0 q 2.0 -3 4 0 q 2.0 3 4 0 q 2.0 -3 4 0 q 2.0 3 4 0 q 2.0 -3 4 0 q 2.0 3 4 0 q 2.0 -3 4 0 q 2.0 3 4 0 q 2.0 -3 4 0 q 2.0 3 4 0 q 2.0 -3 4 0 q 2.0 3 4 0 q 2.0 -3 4 0 q 2.0 3 4 0 q 2.0 -3 4 0 q 2.0 3 4 0 q 2.0 -3 4 0 q 2.0 3 4 0 q 2.0 -3 4 0 q 2.0 3 4 0 q 2.0 -3 4 0 q 2.0 3 4 0 q 2.0 -3 4 0 q 2.0 3 4 0 q 2.0 -3 4 0 q 2.0 3 4 0 q 2.0 -3 4 0 q 2.0 3 4 0 q 2.0 -3 4 0 q 2.0 3 4 0 q 2.0 -3 4 0 q 2.0 3 4 0 q 2.0 -3 4 0 q 2.0 3 4 0 q 2.0 -3 4 0 q 2.0 3 4 0 q 2.0 -3 4 0 q 2.0 3 4 0 q 2.0 -3 4 0 q 2.0 3 4 0 q 2.0 -3 4 0 q 2.0 3 4 0 q 1.5699999999999932 -3 3.1399999999999864 0" fill="none" stroke="#dc2626" stroke-width="1.4" opacity="0.9"/>
<text x="20" y="205" font-family="ui-monospace,SFMono-Regular,Menlo,Consolas,monospace" font-size="13" textLength="265.9" lengthAdjust="spacingAndGlyphs" fill="#18181b">re-rendering is likely because you</text>
<path d="M168.58 211 q 2.0 -3 4 0 q 2.0 3 4 0 q 2.0 -3 4 0 q 2.0 3 4 0 q 2.0 -3 4 0 q 2.0 3 4 0 q 2.0 -3 4 0 q 2.0 3 4 0 q 2.0 -3 4 0 q 2.0 3 4 0 q 2.0 -3 4 0 q 2.0 3 4 0 q 2.0 -3 4 0 q 2.0 3 4 0 q 2.0 -3 4 0 q 2.0 3 4 0 q 2.0 -3 4 0 q 2.0 3 4 0 q 2.0 -3 4 0 q 2.0 3 4 0 q 2.0 -3 4 0 q 2.0 3 4 0 q 2.0 -3 4 0 q 2.0 3 4 0 q 2.0 -3 4 0 q 2.0 3 4 0 q 2.0 -3 4 0 q 2.0 3 4 0 q 2.0 -3 4 0 q 0.6499999999999773 3 1.2999999999999545 0" fill="none" stroke="#dc2626" stroke-width="1.4" opacity="0.9"/>
<text x="20" y="235" font-family="ui-monospace,SFMono-Regular,Menlo,Consolas,monospace" font-size="13" textLength="258.1" lengthAdjust="spacingAndGlyphs" fill="#18181b">may want to consider memoization.</text>
<path d="M20.0 241 q 2.0 -3 4 0 q 2.0 3 4 0 q 2.0 -3 4 0 q 2.0 3 4 0 q 2.0 -3 4 0 q 2.0 3 4 0 q 2.0 -3 4 0 q 2.0 3 4 0 q 2.0 -3 4 0 q 2.0 3 4 0 q 2.0 -3 4 0 q 2.0 3 4 0 q 2.0 -3 4 0 q 2.0 3 4 0 q 2.0 -3 4 0 q 2.0 3 4 0 q 2.0 -3 4 0 q 2.0 3 4 0 q 2.0 -3 4 0 q 2.0 3 4 0 q 2.0 -3 4 0 q 2.0 3 4 0 q 2.0 -3 4 0 q 2.0 3 4 0 q 2.0 -3 4 0 q 2.0 3 4 0 q 2.0 -3 4 0 q 2.0 3 4 0 q 2.0 -3 4 0 q 2.0 3 4 0 q 2.0 -3 4 0 q 2.0 3 4 0 q 2.0 -3 4 0 q 2.0 3 4 0 q 2.0 -3 4 0 q 2.0 3 4 0 q 2.0 -3 4 0 q 2.0 3 4 0 q 2.0 -3 4 0 q 0.20000000000000284 3 0.4000000000000057 0" fill="none" stroke="#dc2626" stroke-width="1.4" opacity="0.9"/>
<line x1="440" y1="186" x2="530" y2="186" stroke="#84cc16" stroke-width="1.5" marker-end="url(#h)"/>
<text x="485" y="176" text-anchor="middle" font-family="ui-monospace,SFMono-Regular,Menlo,Consolas,monospace" font-size="11" fill="#71717a">vale</text>
<rect x="560" y="86" width="440" height="200" rx="10" fill="#ffffff" stroke="#84cc16" stroke-width="1"/>
<text x="580" y="112" font-family="ui-monospace,SFMono-Regular,Menlo,Consolas,monospace" font-size="11" fill="#71717a">rewrite</text>
<text x="980" y="112" text-anchor="end" font-family="ui-monospace,SFMono-Regular,Menlo,Consolas,monospace" font-size="11" fill="#65a30d">clean &#183; exit 0</text>
<text x="580" y="145" font-family="ui-monospace,SFMono-Regular,Menlo,Consolas,monospace" font-size="13" textLength="258.1" lengthAdjust="spacingAndGlyphs" fill="#18181b">Your component re-renders because</text>
<text x="580" y="175" font-family="ui-monospace,SFMono-Regular,Menlo,Consolas,monospace" font-size="13" textLength="250.2" lengthAdjust="spacingAndGlyphs" fill="#18181b">you create a new object on every</text>
<text x="580" y="205" font-family="ui-monospace,SFMono-Regular,Menlo,Consolas,monospace" font-size="13" textLength="242.4" lengthAdjust="spacingAndGlyphs" fill="#18181b">render. React compares props by</text>
<text x="580" y="235" font-family="ui-monospace,SFMono-Regular,Menlo,Consolas,monospace" font-size="13" textLength="273.7" lengthAdjust="spacingAndGlyphs" fill="#18181b">reference, so the memo check fails.</text>
<text x="0" y="312" font-family="ui-monospace,SFMono-Regular,Menlo,Consolas,monospace" font-size="12" fill="#71717a">Direct</text>
<text x="68.4" y="312" font-family="ui-monospace,SFMono-Regular,Menlo,Consolas,monospace" font-size="12" fill="#71717a">Plain</text>
<text x="129.4" y="312" font-family="ui-monospace,SFMono-Regular,Menlo,Consolas,monospace" font-size="12" fill="#71717a">Unslop</text>
<text x="197.8" y="312" font-family="ui-monospace,SFMono-Regular,Menlo,Consolas,monospace" font-size="12" fill="#71717a">Brevity</text>
<text x="273.6" y="312" font-family="ui-monospace,SFMono-Regular,Menlo,Consolas,monospace" font-size="12" fill="#71717a">Simple</text>
<text x="342.0" y="312" font-family="ui-monospace,SFMono-Regular,Menlo,Consolas,monospace" font-size="12" fill="#71717a">GenZ</text>
</svg>
